<?xml version="1.0" encoding="UTF-8" standalone="no"?>
<svg width="160px" height="80px" viewBox="0 0 160 80" version="1.1" xmlns="http://www.w3.org/2000/svg" xmlns:xlink="http://www.w3.org/1999/xlink">
    <!-- Generator: Sketch 42 (36781) - http://www.bohemiancoding.com/sketch -->
    <title>Zopa Teal</title>
    <desc>Created with Sketch.</desc>
    <defs></defs>
    <g id="Responsive-web-test" stroke="none" stroke-width="1" fill="none" fill-rule="evenodd">
        <g id="Homepage" transform="translate(-640.000000, -134.000000)">
            <g id="Zopa-Teal" transform="translate(640.000000, 134.000000)">
                <polygon id="BG" fill="#FFFFFF" points="0 80 159.998149 80 159.998149 0 0 0"></polygon>
                <path d="M60.4775648,45.7608001 C57.8239659,45.7608001 55.502215,43.3992454 55.502215,40.2057389 C55.502215,37.0134209 57.7907811,34.7184223 60.4775648,34.7184223 C63.1311637,34.7184223 65.2538058,37.0134209 65.2538058,40.2057389 C65.2538058,43.3992454 63.1311637,45.7608001 60.4775648,45.7608001 L60.4775648,45.7608001 Z M60.3780104,28.2993197 C52.9813552,28.2993197 47.6089729,33.2553756 47.6089729,40.1736493 C47.6089729,47.1252011 52.9813552,52.1810912 60.3780104,52.1810912 C67.7746656,52.1810912 73.1470479,47.091923 73.1470479,40.1736493 C73.1470479,33.2886537 67.7746656,28.2993197 60.3780104,28.2993197 L60.3780104,28.2993197 Z M34.1696922,50.7377219 L35.2666801,50.7377219 L35.2666801,30.0398873 L29.4121163,30.0398873 L29.4121163,39.8910326 C26.7581899,39.8910326 20.1857705,29.6428548 13.0488123,29.6428548 L11.9506359,29.6428548 L11.9506359,50.3395043 L17.8063883,50.3395043 L17.8063883,40.488359 C20.4603146,40.488359 27.032734,50.7377219 34.1696922,50.7377219 L34.1696922,50.7377219 Z M98.1944618,39.9407028 L95.376124,39.9407028 L95.376124,34.3856416 L98.1944618,34.3856416 C99.8537018,34.3856416 100.814876,35.3839838 100.814876,37.1132551 C100.814876,38.9090825 99.8537018,39.9407028 98.1944618,39.9407028 L98.1944618,39.9407028 Z M98.5926794,28.5322662 L88.0778381,28.5322662 L88.0778381,51.8483105 L95.376124,51.8483105 L95.376124,45.7940782 L98.5926794,45.7940782 C104.629943,45.7940782 108.111977,42.5340155 108.111977,36.8803086 C108.111977,31.5581939 104.629943,28.5322662 98.5926794,28.5322662 L98.5926794,28.5322662 Z M130.305498,43.0331866 L132.759988,36.2147471 L135.148108,43.0331866 L130.305498,43.0331866 Z M136.938902,29.0764839 L129.04566,29.0764839 L119.2277,52.3925282 L127.122127,52.3925282 L128.315595,49.0991874 L137.038457,49.0991874 L138.199925,52.3925282 L146.393015,52.3925282 L136.938902,29.0764839 Z" id="Fill-2" fill="#304FFE"></path>
            </g>
        </g>
    </g>
</svg>