<?xml version="1.0" encoding="UTF-8" standalone="no"?>
<svg width="306px" height="206px" viewBox="0 0 306 206" version="1.1" xmlns="http://www.w3.org/2000/svg" xmlns:xlink="http://www.w3.org/1999/xlink">
    <!-- Generator: Sketch 42 (36781) - http://www.bohemiancoding.com/sketch -->
    <title>Group 8</title>
    <desc>Created with Sketch.</desc>
    <defs>
        <polygon id="path-1" points="68.1488458 68.1801708 68.1488458 0.271938821 0.406960496 0.271938821 0.406960496 68.1801708 68.1488458 68.1801708"></polygon>
    </defs>
    <g id="Responsive-web-test" stroke="none" stroke-width="1" fill="none" fill-rule="evenodd">
        <g id="Homepage-&gt;360" transform="translate(-38.000000, -713.000000)">
            <g id="Group-8" transform="translate(38.000000, 713.000000)">
                <g id="Group-Copy">
                    <g id="Group-3">
                        <g id="Page-1">
                            <polygon id="Fill-1" fill="#2ABBF0" points="135.619458 0.000203928623 33.9047628 101.964516 0.00020342939 135.95228 0.00020342939 203.928828 67.8093222 203.928828 101.714899 169.941064 203.429594 67.976752 203.429594 0.000203928623"></polygon>
                            <g id="Group-7" transform="translate(1.867130, 0.000000)">
                                <g id="Group-4" transform="translate(133.413414, 135.612535)">
                                    <mask id="mask-2" fill="white">
                                        <use xlink:href="#path-1"></use>
                                    </mask>
                                    <g id="Clip-3"></g>
                                    <path d="M34.277954,0.271938821 C15.5716044,0.271938821 0.406960496,15.4737981 0.406960496,34.2260548 C0.406960496,52.9783114 15.5716044,68.1801708 34.277954,68.1801708 C52.9843036,68.1801708 68.1489476,52.9783114 68.1489476,34.2260548 C68.1489476,15.4737981 52.9843036,0.271938821 34.277954,0.271938821" id="Fill-2" fill="#2ABBF0" mask="url(#mask-2)"></path>
                                </g>
                                <path d="M33.8865003,67.9082319 C52.59285,67.9082319 67.7574939,52.7063726 67.7574939,33.954116 C67.7574939,15.2018593 52.59285,0 33.8865003,0 C15.1801507,0 0.0155068161,15.2018593 0.0155068161,33.954116 C0.0155068161,52.7063726 15.1801507,67.9082319 33.8865003,67.9082319" id="Fill-5" fill="#2ABBF0"></path>
                            </g>
                        </g>
                        <g id="Group-2" transform="translate(204.000000, 50.000000)" fill="#304FFE">
                            <g id="Page-1" transform="translate(0.000000, 0.484975)">
                                <path d="M25.9272753,13.110177 C25.9272753,20.3506655 20.1231954,26.220354 12.9636376,26.220354 C5.80407984,26.220354 0,20.3506655 0,13.110177 C0,5.86968844 5.80407984,0 12.9636376,0 C20.1231954,0 25.9272753,5.86968844 25.9272753,13.110177" id="Fill-1"></path>
                                <path d="M25.9272753,39.3305309 C25.9272753,46.5710195 20.1231954,52.4407079 12.9636376,52.4407079 C5.80407984,52.4407079 0,46.5710195 0,39.3305309 C0,32.0900424 5.80407984,26.220354 12.9636376,26.220354 C20.1231954,26.220354 25.9272753,32.0900424 25.9272753,39.3305309" id="Fill-3"></path>
                                <path d="M25.9272753,39.3305309 C25.9272753,32.0900424 31.7313551,26.220354 38.8909129,26.220354 C46.0504707,26.220354 51.8545505,32.0900424 51.8545505,39.3305309 C51.8545505,46.5710195 46.0504707,52.4407079 38.8909129,52.4407079 C31.7313551,52.4407079 25.9272753,46.5710195 25.9272753,39.3305309" id="Fill-5"></path>
                                <path d="M25.9272753,13.110177 C25.9272753,5.86968844 31.7313551,0 38.8909129,0 C46.0504707,0 51.8545505,5.86968844 51.8545505,13.110177 C51.8545505,20.3506655 46.0504707,26.220354 38.8909129,26.220354 C31.7313551,26.220354 25.9272753,20.3506655 25.9272753,13.110177" id="Fill-7"></path>
                            </g>
                        </g>
                    </g>
                </g>
                <path d="M203,206 L306,206 L306,103 L203,103 L203,206 Z M240.08,168.92 L268.92,168.92 L268.92,140.08 L240.08,140.08 L240.08,168.92 Z" id="Page-1" fill="#F97056"></path>
            </g>
        </g>
    </g>
</svg>